<?xml version="1.0" standalone="no"?>
<!DOCTYPE svg PUBLIC "-//W3C//DTD SVG 20010904//EN"
 "http://www.w3.org/TR/2001/REC-SVG-20010904/DTD/svg10.dtd">
<svg version="1.0" xmlns="http://www.w3.org/2000/svg"
 width="703.889080pt" height="684.847229pt" viewBox="0 0 703.889080 684.847229"
 preserveAspectRatio="xMidYMid meet">
<metadata>
Created by potrace 1.16, written by Peter Selinger 2001-2019
</metadata>
<g transform="translate(-276.000000,966.000000) scale(0.100000,-0.100000)"
fill="#E2231A" stroke="none">
<path d="M4031 9084 c-1 -575 -1 -575 21 -569 22 6 22 6 4 -9 -22 -18 -34
-199 -15 -222 7 -8 6 -14 -1 -19 -12 -8 -10 -145 2 -145 5 0 6 -5 3 -11 -14
-21 -16 -71 -4 -85 6 -8 7 -14 1 -14 -5 0 -10 -20 -10 -45 -1 -47 5 -54 27
-32 11 9 10 7 0 -10 -8 -13 -16 -23 -19 -23 -11 0 -9 -94 2 -107 7 -9 7 -13 0
-13 -7 0 -11 -463 -11 -1510 l-1 -1510 520 0 520 1 0 339 c0 340 0 340 -95
340 -95 0 -95 0 -95 -85 0 -85 0 -85 -95 -85 -96 0 -96 0 -93 445 3 446 3 446
-73 368 -145 -149 -129 -172 -129 186 0 343 -6 335 123 172 16 -20 47 -56 70
-80 25 -27 37 -46 29 -49 -8 -2 -12 -27 -12 -73 0 -69 0 -69 79 -69 93 0 99
-4 103 -85 3 -60 3 -60 55 -65 50 -5 55 -8 93 -59 40 -53 40 -53 40 198 0 251
0 251 -122 394 -68 79 -172 201 -233 273 -267 314 -296 346 -314 332 -14 -12
-14 -11 -2 4 11 15 10 22 -13 49 -15 17 -26 35 -24 39 2 5 66 82 143 171 77
90 198 231 269 313 71 83 167 194 213 246 83 94 83 94 83 345 0 250 0 250 -38
208 -34 -39 -41 -43 -92 -45 -55 -3 -55 -3 -60 -78 -5 -75 -5 -75 -93 -78 -88
-3 -88 -3 -86 -92 2 -89 2 -89 -96 -205 -54 -63 -102 -118 -106 -121 -11 -6
-10 -23 -10 301 0 339 0 332 9 319 4 -7 14 -13 23 -15 8 -2 48 -41 88 -87 40
-46 75 -81 77 -79 3 2 6 208 7 458 2 454 2 454 95 457 92 3 92 3 92 -82 0 -86
0 -86 95 -86 95 0 95 0 95 280 0 280 0 280 -519 280 l-519 0 -1 -576z"/>
<path d="M5487 9513 c70 -82 130 -150 133 -153 3 -3 59 -68 125 -145 65 -77
194 -225 285 -330 91 -104 187 -215 213 -245 47 -55 47 -55 47 -677 0 -623 0
-623 150 -623 113 0 150 3 150 13 0 9 3 9 9 -1 16 -25 699 -11 826 17 573 127
922 515 942 1047 15 403 -131 717 -442 949 -67 50 -175 110 -175 98 0 -4 -4
-3 -8 3 -26 41 -291 134 -470 165 -156 27 -390 38 -403 18 -6 -10 -9 -10 -9
-1 0 9 -157 12 -751 12 -750 0 -750 0 -622 -147z"/>
<path d="M5300 8392 c0 -363 0 -363 164 -550 374 -426 489 -558 503 -579 14
-21 11 -26 -59 -105 -40 -46 -112 -128 -160 -183 -106 -123 -313 -359 -391
-447 -57 -66 -57 -66 -55 -425 3 -360 3 -360 103 -245 225 259 374 433 380
442 3 5 -26 44 -65 86 -39 42 -70 80 -68 84 2 5 122 142 268 305 402 450 370
410 370 472 0 51 -2 55 -63 120 -35 38 -117 129 -182 203 -66 74 -160 180
-210 235 -206 229 -197 204 -115 295 72 80 72 80 -11 178 -76 89 -380 443
-401 467 -4 5 -8 -154 -8 -353z"/>
<path d="M5018 7528 c-86 -101 -177 -205 -202 -233 -45 -50 -45 -50 -12 -85
19 -19 93 -105 166 -190 225 -263 204 -246 246 -201 19 22 47 55 62 73 15 19
83 99 151 178 69 80 131 152 138 162 13 14 -4 37 -154 209 -92 106 -184 210
-203 231 -35 38 -35 38 -192 -144z"/>
<path d="M6290 6543 c0 -638 0 -638 -112 -768 -122 -141 -617 -712 -702 -810
-200 -229 -299 -206 885 -202 1052 3 1065 3 1176 25 437 87 752 323 892 669
149 368 112 877 -87 1188 -80 123 -265 307 -293 289 -7 -4 -9 -3 -6 3 13 21
-175 124 -310 169 -197 66 -201 67 -850 71 l-593 4 0 -638z"/>
<path d="M9274 3915 c-165 -36 -267 -150 -266 -298 1 -184 71 -248 358 -328
215 -60 244 -80 244 -169 0 -98 -73 -144 -219 -138 -109 4 -176 29 -267 98
-52 39 -52 39 -108 -30 -56 -69 -56 -69 -18 -98 185 -146 464 -183 644 -85
126 69 185 215 144 356 -33 115 -101 162 -332 230 -231 69 -273 99 -261 189
19 144 263 159 447 28 29 -21 29 -21 76 49 56 84 56 82 -59 140 -131 65 -258
83 -383 56z"/>
<path d="M4710 3911 c0 -5 -28 -71 -61 -148 -34 -76 -83 -187 -109 -248 -27
-60 -90 -204 -141 -320 -180 -412 -172 -366 -63 -363 95 3 95 3 183 208 213
495 280 645 288 640 8 -5 20 -32 163 -370 227 -538 191 -480 296 -480 52 0 94
4 94 8 0 4 -43 107 -96 228 -52 120 -150 345 -216 499 -171 397 -141 355 -248
355 -50 0 -90 -4 -90 -9z"/>
<path d="M2760 3369 l0 -540 328 3 c374 4 395 8 491 94 78 70 108 193 72 296
-18 55 -89 123 -150 145 -49 17 -67 33 -37 33 7 0 34 18 59 40 131 116 101
341 -57 422 -84 43 -127 48 -423 48 -283 0 -283 0 -283 -541z m576 359 c82
-44 108 -129 61 -199 -41 -62 -81 -73 -265 -77 -89 -2 -168 -2 -175 1 -9 3
-11 41 -9 152 3 147 3 147 180 143 142 -3 183 -7 208 -20z m41 -449 c88 -27
130 -136 81 -209 -45 -66 -79 -75 -304 -78 -201 -3 -201 -3 -208 29 -8 40 -8
148 0 216 7 52 7 52 78 55 110 5 317 -3 353 -13z"/>
<path d="M5850 3825 c0 -85 0 -85 170 -85 170 0 170 0 170 -455 0 -455 0 -455
95 -455 95 0 95 0 95 455 0 455 0 455 175 455 175 0 175 0 175 85 0 85 0 85
-440 85 -440 0 -440 0 -440 -85z"/>
<path d="M7390 3552 c0 -377 4 -414 50 -519 64 -145 249 -235 454 -220 181 13
309 92 375 232 47 98 51 139 51 515 0 350 0 350 -90 350 -90 0 -90 0 -90 -325
0 -410 -9 -460 -102 -539 -115 -99 -332 -78 -410 39 -50 75 -51 87 -55 468 -4
357 -4 357 -94 357 -89 0 -89 0 -89 -358z"/>
</g>
</svg>
